A DiGrX rekease

- Robin Hood Men In Tights (1993) BRRip XviD - DiGrX
+ Robin Hood Men In Tights - Behind the Scenes
+ Robin Hood Men In Tights - Trailer
+ Front cover jpg


Main movie file info:

General
Format                                   : AVI
Format/Info                              : Audio Video Interleave
Format profile                           : OpenDML
File size                                : 1.56 GiB
Duration                                 : 1h 44mn
Overall bit rate mode                    : Variable
Overall bit rate                         : 2 135 Kbps
Writing application                      : MEncoder r33883
Writing library                          : MPlayer

Video
ID                                       : 0
Format                                   : MPEG-4 Visual
Format profile                           : Simple@L3
Format settings, BVOP                    : No
Format settings, QPel                    : No
Format settings, GMC                     : No warppoints
Format settings, Matrix                  : Default (H.263)
Codec ID                                 : XVID
Codec ID/Hint                            : XviD
Duration                                 : 1h 44mn
Bit rate                                 : 1 997 Kbps
Width                                    : 880 pixels
Height                                   : 480 pixels
Display aspect ratio                     : 16:9
Frame rate                               : 25.000 fps
Color space                              : YUV
Chroma subsampling                       : 4:2:0
Bit depth                                : 8 bits
Scan type                                : Progressive
Compression mode                         : Lossy
Bits/(Pixel*Frame)                       : 0.189
Stream size                              : 1.46 GiB (94%)
Writing library                          : XviD 63

Audio
ID                                       : 1
Format                                   : MPEG Audio
Format version                           : Version 1
Format profile                           : Layer 3
Mode                                     : Joint stereo
Mode extension                           : MS Stereo
Codec ID                                 : 55
Codec ID/Hint                            : MP3
Duration                                 : 1h 44mn
Bit rate mode                            : Variable
Bit rate                                 : 124 Kbps
Channel(s)                               : 2 channels
Sampling rate                            : 48.0 KHz
Compression mode                         : Lossy
Stream size                              : 92.5 MiB (6%)
Alignment                                : Aligned on interleaves
Interleave, duration                     : 24 ms (0.60 video frame)
Interleave, preload duration             : 477 ms
